<svg xmlns="http://www.w3.org/2000/svg" viewBox="0 0 186.38 48.24"><defs><style>.cls-1{fill:#73bb39;}.cls-2,.cls-4{fill:#0061ae;}.cls-2{fill-rule:evenodd;}.cls-3{fill:#00a3e9;}</style></defs><title>Ресурс 1</title><g id="Слой_2" data-name="Слой 2"><g id="Слой_1-2" data-name="Слой 1"><path class="cls-1" d="M38.88,4.9A2.29,2.29,0,1,1,36.6,2.62,2.29,2.29,0,0,1,38.88,4.9M36.72,0a5,5,0,0,0-5.09,5v.16a4.16,4.16,0,0,0,.21,1.21,4.69,4.69,0,0,0,1,1.74l3.56,4.11a.29.29,0,0,0,.44,0l3.56-4.11a4.94,4.94,0,0,0,.94-1.61,4.74,4.74,0,0,0,.25-1.4V4.92A5,5,0,0,0,36.72,0"/><path class="cls-2" d="M14.25,28.5H26.88V18H14.39a3.72,3.72,0,0,1,0-7.44h7.22V0H14.25a14.25,14.25,0,0,0,0,28.5"/><path class="cls-2" d="M21.61,0a5.27,5.27,0,1,1-5.26,5.27A5.27,5.27,0,0,1,21.61,0"/><path class="cls-2" d="M39,18H26.34V28.5H38.82a3.73,3.73,0,0,1,3.72,3.72h0a3.73,3.73,0,0,1-3.72,3.72H31.6V46.48H39A14.3,14.3,0,0,0,53.21,32.22h0A14.3,14.3,0,0,0,39,18"/><path class="cls-2" d="M31.6,46.48a5.27,5.27,0,1,1,5.27-5.27,5.26,5.26,0,0,1-5.27,5.27"/><path class="cls-3" d="M18.9,40.84a2.29,2.29,0,1,1-2.28-2.28,2.28,2.28,0,0,1,2.28,2.28M16.74,36a5,5,0,0,0-5.09,5v.16a4.58,4.58,0,0,0,.2,1.22,4.92,4.92,0,0,0,1,1.74l3.57,4.11a.29.29,0,0,0,.22.1.32.32,0,0,0,.22-.1L20.4,44a4.84,4.84,0,0,0,.94-1.61A4.72,4.72,0,0,0,21.58,41a.86.86,0,0,0,0-.16A5,5,0,0,0,16.74,36"/><path class="cls-4" d="M75.47,11.92a10.36,10.36,0,0,1,3.74.61,8.53,8.53,0,0,1,2.89,1.85L80,16.84a6.52,6.52,0,0,0-4.2-1.6,3.25,3.25,0,0,0-1.88.48,1.6,1.6,0,0,0-.69,1.39,1.69,1.69,0,0,0,.3,1,2.94,2.94,0,0,0,1.08.76,21.47,21.47,0,0,0,2.32.86,10.73,10.73,0,0,1,4.31,2.3A5.25,5.25,0,0,1,82.62,26a5.55,5.55,0,0,1-.91,3.16,6,6,0,0,1-2.62,2.13A10.07,10.07,0,0,1,75,32a10.76,10.76,0,0,1-4.16-.75,9.82,9.82,0,0,1-3.11-2l2.29-2.51a8.71,8.71,0,0,0,2.28,1.41,6.9,6.9,0,0,0,2.56.47A3.53,3.53,0,0,0,77.11,28a2,2,0,0,0,.82-1.72,2.14,2.14,0,0,0-.31-1.2,2.47,2.47,0,0,0-1.05-.87,13,13,0,0,0-2.15-.83A10.44,10.44,0,0,1,69.9,21a5,5,0,0,1-1.34-3.56,4.94,4.94,0,0,1,.88-2.92A5.62,5.62,0,0,1,71.9,12.6a9,9,0,0,1,3.57-.68"/><path class="cls-4" d="M94,30.85a6.36,6.36,0,0,1-1.86.85A7.45,7.45,0,0,1,90,32c-3.2,0-4.81-1.79-4.81-5.31V19.9H83.13v-3H85.2V13.69l4.37-.5v3.68h3.37l-.47,3h-2.9v6.75a2.48,2.48,0,0,0,.33,1.46,1.21,1.21,0,0,0,1,.44,3.17,3.17,0,0,0,1.58-.47Z"/><path class="cls-4" d="M100.42,28.88a2.56,2.56,0,0,0,2.32-1.4v-2.6h-1.08a3.83,3.83,0,0,0-2.22.52A1.87,1.87,0,0,0,98.71,27a1.93,1.93,0,0,0,.45,1.37,1.66,1.66,0,0,0,1.26.48m6.6-1.6a2.38,2.38,0,0,0,.24,1.22,1.39,1.39,0,0,0,.76.58l-.91,2.84a5.41,5.41,0,0,1-2.22-.59,3.14,3.14,0,0,1-1.32-1.53A4.91,4.91,0,0,1,99.15,32a4.77,4.77,0,0,1-3.48-1.27,4.44,4.44,0,0,1-1.3-3.32,4.23,4.23,0,0,1,1.77-3.67,8.64,8.64,0,0,1,5.11-1.28h1.49v-.63a2.28,2.28,0,0,0-.55-1.78,2.94,2.94,0,0,0-1.94-.49,8.85,8.85,0,0,0-1.74.21,18.35,18.35,0,0,0-2.1.57l-1-2.88a17.24,17.24,0,0,1,2.83-.8,14.76,14.76,0,0,1,2.69-.27,6.89,6.89,0,0,1,4.62,1.29,5,5,0,0,1,1.46,3.9Z"/><path class="cls-4" d="M118.18,31.57A8.52,8.52,0,0,1,115.3,36a9.61,9.61,0,0,1-5.38,1.72l-.47-3.06a7.73,7.73,0,0,0,3.11-.94,4.65,4.65,0,0,0,1.62-2.13h-1.49l-4.48-14.67h4.64l2.63,11.88,2.87-11.88h4.5Z"/><path class="cls-4" d="M130.67,28.25a5.53,5.53,0,0,0,2.73-.54,2.13,2.13,0,0,0,.92-2c0-1.77-1.1-2.65-3.31-2.65h-2v5.19ZM129,15.59V20h1.68c1.92,0,2.88-.77,2.88-2.32a1.77,1.77,0,0,0-.78-1.64,4.78,4.78,0,0,0-2.46-.49Zm5.66,5.81a6.44,6.44,0,0,1,3.11,1.41A4,4,0,0,1,139,26a4.56,4.56,0,0,1-2.2,4.32,12.41,12.41,0,0,1-6.14,1.26h-6.17V12.39h5.42a13.18,13.18,0,0,1,6.16,1.15,3.92,3.92,0,0,1,2.13,3.74,3.75,3.75,0,0,1-1,2.72,5,5,0,0,1-2.5,1.4"/><path class="cls-4" d="M147.52,19.6a2.17,2.17,0,0,0-2,1.12,7.05,7.05,0,0,0-.66,3.47,7.25,7.25,0,0,0,.65,3.51,2.35,2.35,0,0,0,4,0,7,7,0,0,0,.67-3.46,7.2,7.2,0,0,0-.65-3.51,2.17,2.17,0,0,0-2-1.11m0-3.2a6.84,6.84,0,0,1,5.28,2.05,8.2,8.2,0,0,1,1.91,5.77,9.13,9.13,0,0,1-.87,4.1A6.37,6.37,0,0,1,151.35,31a7.36,7.36,0,0,1-3.83,1A6.85,6.85,0,0,1,142.26,30a8.11,8.11,0,0,1-1.92-5.76,9.15,9.15,0,0,1,.87-4.11,6.43,6.43,0,0,1,2.49-2.72,7.32,7.32,0,0,1,3.82-1"/><path class="cls-4" d="M163.38,19.6a2.15,2.15,0,0,0-2,1.12,6.92,6.92,0,0,0-.67,3.47,7.25,7.25,0,0,0,.65,3.51,2.36,2.36,0,0,0,4,0,7,7,0,0,0,.66-3.46,7.2,7.2,0,0,0-.65-3.51,2.16,2.16,0,0,0-2-1.11m0-3.2a6.83,6.83,0,0,1,5.27,2.05,8.2,8.2,0,0,1,1.91,5.77,9.13,9.13,0,0,1-.87,4.1A6.37,6.37,0,0,1,167.2,31a7.35,7.35,0,0,1-3.82,1A6.87,6.87,0,0,1,158.11,30a8.11,8.11,0,0,1-1.92-5.76,9.15,9.15,0,0,1,.87-4.11,6.43,6.43,0,0,1,2.49-2.72,7.36,7.36,0,0,1,3.83-1"/><path class="cls-4" d="M186,16.87l-4.45,6.43,4.81,8.24h-4.92l-4.37-8,4.48-6.65ZM177,10.57v21h-4.37V11Z"/></g></g></svg>